# File created by Blade
# Date/Time:  Wed Jan 21 18:40:08 2015
# Frame Rate: 120.000 fps
#------------------------------------------------------
:FULLY-SPECIFIED
:DEGREES
2902
root -3.742627 15.281715 -8.674825 62.278379 -8.536841 23.106232
RightUpLeg -192.059321 -46.432011 55.906857
RightLeg 119.219810 -0.000000 -0.000000
RightFoot -12.593900 49.020615 20.361412
RightToeBase 27.306619 -0.000000 -0.000000
LeftUpLeg -79.915317 47.126985 -28.161981
LeftLeg -7.233503 -0.000000 0.000000
LeftFoot 18.142105 -14.556169 -46.566882
LeftToeBase 9.396728 -0.000000 -0.000000
Spine -34.572696 41.613054 0.080906
RightShoulder -7.465411 15.832596 -31.043446
RightArm -33.412300 27.344457 58.730851
RightForeArm -8.924279 -0.000000 44.659746
RightHand 30.977509 0.000000 -67.484991
RightHandThumb1 -24.326973 -0.000000 -32.862282
LeftShoulder -28.407642 5.206319 47.286060
LeftArm -3.795854 -14.236023 -38.478161
LeftForeArm 10.296124 -0.000000 -5.362515
LeftHand -26.964232 -0.000000 16.329241
LeftHandThumb1 -26.253704 0.000000 33.147579
Head -58.812261 -31.383196 61.573367
2903
root -3.739847 15.292456 -8.688791 62.311463 -8.644041 23.088531
RightUpLeg -191.940638 -46.308576 55.722414
RightLeg 119.160208 -0.000000 -0.000000
RightFoot -12.675687 48.957750 20.263063
RightToeBase 27.327312 -0.000000 -0.000000
LeftUpLeg -79.925710 47.138375 -28.188604
LeftLeg -7.199784 -0.000000 0.000000
LeftFoot 18.025989 -14.495073 -46.567227
LeftToeBase 9.541416 -0.000000 -0.000000
Spine -34.558196 41.569070 0.071499
RightShoulder -7.439376 15.980209 -31.063373
RightArm -33.287888 27.325479 58.782340
RightForeArm -8.967462 0.000000 44.524188
RightHand 30.995936 0.000000 -67.496775
RightHandThumb1 -24.326973 -0.000000 -32.862282
LeftShoulder -28.397082 5.255354 47.181746
LeftArm -3.598240 -14.135692 -38.394598
LeftForeArm 10.362372 0.000000 -5.283730
LeftHand -27.028487 0.000000 16.434471
LeftHandThumb1 -26.253704 0.000000 33.147579
Head -58.755443 -31.422929 61.497523
2904
root -3.735722 15.305137 -8.700604 62.344548 -8.751364 23.080229
RightUpLeg -191.841122 -46.186485 55.562452
RightLeg 119.089231 -0.000000 -0.000000
RightFoot -12.620645 48.926515 20.327249
RightToeBase 27.382113 -0.000000 -0.000000
LeftUpLeg -79.959985 47.142314 -28.257592
LeftLeg -7.158701 -0.000000 0.000000
LeftFoot 17.957284 -14.484827 -46.504766
LeftToeBase 9.564813 -0.000000 -0.000000
Spine -34.540317 41.527609 0.060071
RightShoulder -7.456690 16.094353 -31.099987
RightArm -33.132314 27.338821 58.847132
RightForeArm -9.114473 -0.000000 44.408331
RightHand 30.985872 -0.000000 -67.435579
RightHandThumb1 -24.326973 -0.000000 -32.862282
LeftShoulder -28.366023 5.169516 47.101267
LeftArm -3.487690 -13.897330 -38.257985
LeftForeArm 10.291764 0.000000 -5.220188
LeftHand -26.995929 -0.000000 16.585753
LeftHandThumb1 -26.253704 0.000000 33.147579
Head -58.747848 -31.459938 61.434817
2905
root -3.729782 15.318251 -8.714006 62.383092 -8.868236 23.077150
RightUpLeg -191.739243 -46.062601 55.389869
RightLeg 119.021870 -0.000000 -0.000000
RightFoot -12.677195 48.922422 20.296142
RightToeBase 27.595025 -0.000000 -0.000000
LeftUpLeg -79.973649 47.136863 -28.308414
LeftLeg -7.131105 -0.000000 0.000000
LeftFoot 17.888044 -14.463273 -46.379592
LeftToeBase 9.416449 -0.000000 -0.000000
Spine -34.526707 41.469670 0.034621
RightShoulder -7.430503 16.193825 -31.135280
RightArm -32.953033 27.294557 58.958896
RightForeArm -8.885514 -0.000000 44.240983
RightHand 31.184656 0.000000 -67.366838
RightHandThumb1 -24.326973 -0.000000 -32.862282
LeftShoulder -28.420683 5.192700 47.013451
LeftArm -3.192511 -13.733616 -38.201994
LeftForeArm 10.280323 -0.000000 -5.176136
LeftHand -27.029055 -0.000000 16.783447
LeftHandThumb1 -26.253704 0.000000 33.147579
Head -58.671996 -31.440050 61.334400
2906
root -3.722349 15.332133 -8.726118 62.421806 -8.994051 23.070503
RightUpLeg -191.651275 -45.910095 55.225581
RightLeg 118.929415 -0.000000 -0.000000
RightFoot -12.647427 48.802060 20.241030
RightToeBase 27.380129 -0.000000 -0.000000
LeftUpLeg -79.960209 47.139386 -28.335504
LeftLeg -7.102518 -0.000000 0.000000
LeftFoot 17.781587 -14.418131 -46.386568
LeftToeBase 9.532265 -0.000000 -0.000000
Spine -34.520943 41.386961 0.022866
RightShoulder -7.361275 16.225377 -31.139236
RightArm -32.665635 27.222726 59.113454
RightForeArm -8.713985 0.000000 44.027487
RightHand 31.199740 -0.000000 -67.339732
RightHandThumb1 -24.326973 -0.000000 -32.862282
LeftShoulder -28.341881 5.099819 47.036289
LeftArm -3.233373 -13.606199 -38.108399
LeftForeArm 10.344391 -0.000000 -4.971628
LeftHand -27.146065 0.000000 16.962093
LeftHandThumb1 -26.253704 0.000000 33.147579
Head -58.597484 -31.492375 61.284724
